<svg width="124" height="50" xmlns="http://www.w3.org/2000/svg"><g fill="none" fill-rule="evenodd"><path d="M21.36 16.714c-1.483 0-2.855-1.393-2.855-2.988 0-1.594 1.218-2.876 2.699-2.876 1.49 0 2.899 1.396 2.899 2.995 0 1.588-1.243 2.87-2.742 2.87zm2.394-8.63v1.21c-.786-.772-1.723-1.7-3.649-1.7-3.082 0-5.673 2.791-5.623 6.132.07 5.007 3.633 6.095 6.013 6.095 1.371 0 2.71-.774 3.336-1.202v.963h3.801V8.084h-3.878zM29.466 13.69c.04 7.526 8.613 6.363 9.71 5.357v-3.38c-2.622 1.474-5.602 1.202-5.634-2.018-.043-3.226 3.597-3.304 5.634-1.983V8.288c-2.506-1.281-9.71-1.592-9.71 5.401M6.375 16.759c-1.495 0-2.746-1.282-2.746-2.876 0-1.59 1.411-2.99 2.898-2.99s2.7 1.277 2.7 2.874c0 1.592-1.375 2.992-2.852 2.992m1.252-9.127c-1.919 0-2.858.93-3.647 1.703V0H.068v19.583H3.94v-1.12c.7.466 1.927 1.396 3.294 1.396 2.388 0 5.945-1.086 6.023-6.092.045-3.344-2.544-6.135-5.63-6.135M46.735 7.823c-.782.15-1.92 1.323-2.275 1.633V.014L40.583.005v19.577h3.877v-6.906c0-2.05 3.878-2.558 3.878.122v6.784H52.1v-8.066c0-2.953-2.12-4.43-5.365-3.693M67.874 7.972c-1.408.55-1.765 1.209-2.234 1.833-.903-2.445-4.03-2.21-5.053-1.944-1.016.274-1.8 1.05-2.027 1.636V8.073h-3.922v11.509h3.922v-6.866c0-2.13 3.87-2.563 3.87.118v6.748h3.76v-6.826c0-2.17 3.92-2.411 3.92.078l-.046 6.748h3.72v-8.69c0-3.338-4.5-3.462-5.91-2.92M111.17 7.94c-.78.162-1.839 1.241-2.189 1.557v-1.41h-3.918v11.495h3.918v-6.866c0-2.13 3.87-2.563 3.87.118v6.748h3.76v-8.03c0-2.95-2.194-4.351-5.44-3.612M97.236 7.899c-.787.16-1.843 1.282-2.197 1.598l-.035-1.42h-3.876v11.505h3.911v-6.867c0-2.13 3.88-2.562 3.88.119v6.748h3.754v-8.029c0-2.95-2.193-4.39-5.437-3.654M121.096 15.396c-1.216 0-2.23 1.011-2.23 2.256 0 1.239 1.014 2.248 2.23 2.248a2.257 2.257 0 002.237-2.248c0-1.245-1.02-2.256-2.237-2.256M82.322 16.714c-1.486 0-2.865-1.393-2.865-2.988 0-1.594 1.215-2.876 2.706-2.876 1.487 0 2.898 1.396 2.898 2.995 0 1.588-1.259 2.87-2.74 2.87zm2.387-8.628v1.208c-.79-.772-1.726-1.624-3.641-1.624-3.093 0-5.684 2.715-5.637 6.056.075 5.007 3.64 6.095 6.028 6.095 1.366 0 2.664-.855 3.328-1.32v1.08h3.796V8.087h-3.874z" fill="#6F6F6F"/><path fill="#F2D600" d="M0 50h116.386V38.043H0z"/></g></svg>